HIERARCHY
ROOT joint_Root
{
	OFFSET 0.0 0.0 0.0
	CHANNELS 6 Xposition Yposition Zposition Zrotation Xrotation Yrotation 
	JOINT Hips
	{
		OFFSET 4.5925 91.4895 -427.239
		CHANNELS 6 Xposition Yposition Zposition Zrotation Xrotation Yrotation 
		JOINT Spine
		{
			OFFSET 15.7357 0.0 0.0
			CHANNELS 6 Xposition Yposition Zposition Zrotation Xrotation Yrotation 
			JOINT Chest
			{
				OFFSET 8.98455 -0.406207 0.0
				CHANNELS 6 Xposition Yposition Zposition Zrotation Xrotation Yrotation 
				JOINT Neck
				{
					OFFSET 16.3773 0.0 0.0
					CHANNELS 6 Xposition Yposition Zposition Zrotation Xrotation Yrotation 
					JOINT Head
					{
						OFFSET 6.45672 0.0 0.0
						CHANNELS 6 Xposition Yposition Zposition Zrotation Xrotation Yrotation 
						End Site
						{
							OFFSET 0.0 0.0 0.0
						}
					}
				}
				JOINT Shoulder_L
				{
					OFFSET 12.9942 -0.242716 4.98039
					CHANNELS 6 Xposition Yposition Zposition Zrotation Xrotation Yrotation 
					JOINT UpperArm_L
					{
						OFFSET 5.34809 0.0 0.0
						CHANNELS 6 Xposition Yposition Zposition Zrotation Xrotation Yrotation 
						JOINT LowerArm_L
						{
							OFFSET 24.3286 1.87007e-05 0.0
							CHANNELS 6 Xposition Yposition Zposition Zrotation Xrotation Yrotation 
							JOINT Hand_L
							{
								OFFSET 22.2916 0.0 0.0
								CHANNELS 6 Xposition Yposition Zposition Zrotation Xrotation Yrotation 
								End Site
								{
									OFFSET 0.0 0.0 0.0
								}
							}
						}
					}
				}
				JOINT Shoulder_R
				{
					OFFSET 12.9945 -0.242716 -4.98039
					CHANNELS 6 Xposition Yposition Zposition Zrotation Xrotation Yrotation 
					JOINT UpperArm_R
					{
						OFFSET -5.34813 0.0 0.0
						CHANNELS 6 Xposition Yposition Zposition Zrotation Xrotation Yrotation 
						JOINT LowerArm_R
						{
							OFFSET -24.3289 0.000322201 0.0
							CHANNELS 6 Xposition Yposition Zposition Zrotation Xrotation Yrotation 
							JOINT Hand_R
							{
								OFFSET -22.2915 -0.000108084 0.0
								CHANNELS 6 Xposition Yposition Zposition Zrotation Xrotation Yrotation 
								End Site
								{
									OFFSET 0.0 0.0 0.0
								}
							}
						}
					}
				}
			}
		}
		JOINT UpperLeg_L
		{
			OFFSET -2.19248 -6.46944 0.0
			CHANNELS 6 Xposition Yposition Zposition Zrotation Xrotation Yrotation 
			JOINT LowerLeg_L
			{
				OFFSET 39.0811 0.0 -1.23785e-05
				CHANNELS 6 Xposition Yposition Zposition Zrotation Xrotation Yrotation 
				JOINT Foot_L
				{
					OFFSET 40.9854 0.0 -1.26872e-05
					CHANNELS 6 Xposition Yposition Zposition Zrotation Xrotation Yrotation 
					JOINT Toes_L
					{
						OFFSET 11.7543 0.0 0.0
						CHANNELS 6 Xposition Yposition Zposition Zrotation Xrotation Yrotation 
						End Site
						{
							OFFSET 0.0 0.0 0.0
						}
					}
				}
			}
		}
		JOINT UpperLeg_R
		{
			OFFSET -2.19251 6.46944 0.0
			CHANNELS 6 Xposition Yposition Zposition Zrotation Xrotation Yrotation 
			JOINT LowerLeg_R
			{
				OFFSET -39.0811 -0.00228153 -0.0401928
				CHANNELS 6 Xposition Yposition Zposition Zrotation Xrotation Yrotation 
				JOINT Foot_R
				{
					OFFSET -40.9854 0.0 0.0
					CHANNELS 6 Xposition Yposition Zposition Zrotation Xrotation Yrotation 
					JOINT Toes_R
					{
						OFFSET -11.7543 0.0 0.0
						CHANNELS 6 Xposition Yposition Zposition Zrotation Xrotation Yrotation 
						End Site
						{
							OFFSET 0.0 0.0 0.0
						}
					}
				}
			}
		}
	}
}
MOTION
Frames:	9
Frame Time:	0.0333333
0.000000 0.000000 0.000000 0.000000 0.000000 -0.000000 -2.236250 88.533300 468.112000 -91.853500 14.905900 168.341000 15.735700 0.000005 -0.000001 126.256000 83.492000 -127.753000 8.984550 -0.406207 -0.000000 2.856480 7.754620 -3.187280 16.377300 -0.000001 -0.000001 -7.452620 -0.673512 1.696200 6.456720 -0.000001 -0.000000 -14.893800 -3.401140 2.276750 12.994200 -0.242716 4.980390 -87.768300 -5.570800 -68.126200 5.348090 -0.000007 -0.000001 -73.485100 35.970800 32.476000 24.328600 0.000019 0.000005 18.632400 1.653340 -85.111000 22.291600 -0.000001 0.000005 13.131000 5.533820 -7.964360 12.994500 -0.242716 -4.980390 89.493900 3.495160 -81.755700 -5.348130 -0.000001 -0.000004 -58.658100 30.984200 -30.932000 -24.328900 0.000322 -0.000009 -3.796560 2.417790 -122.445000 -22.291500 -0.000108 -0.000004 28.008800 5.644470 -14.514700 -2.192480 -6.469440 -0.000000 175.282000 -1.022710 -50.040500 39.081100 -0.000007 -0.000012 0.127453 -0.008553 86.157200 40.985400 -0.000006 -0.000013 6.965400 -11.399200 -66.385200 11.754300 -0.000000 0.000003 -0.007655 -0.085203 -20.046000 -2.192510 6.469440 -0.000001 168.951000 15.659900 178.302000 -39.081100 -0.002282 -0.040193 0.045031 -0.068681 31.283500 -40.985400 0.000008 0.000006 6.349930 11.932900 -62.835500 -11.754300 -0.000006 -0.000006 -0.172962 -0.598182 -42.026500
0.000000 0.000000 0.000000 0.000000 0.000000 -0.000000 -2.360600 90.561100 461.897000 -91.138800 13.550800 167.807000 15.735700 0.000005 -0.000001 125.229000 83.425600 -126.947000 8.984550 -0.406207 -0.000000 3.116010 7.646840 -3.643500 16.377300 -0.000001 -0.000001 -8.322150 -0.845880 1.022090 6.456720 -0.000001 -0.000000 -16.311700 -3.871070 1.148270 12.994200 -0.242716 4.980390 -87.268400 -6.987090 -68.583400 5.348090 -0.000007 -0.000001 -73.984800 30.768800 33.575400 24.328600 0.000019 0.000005 19.674600 0.740565 -87.926500 22.291600 -0.000001 0.000005 12.518300 5.525550 -7.596980 12.994500 -0.242716 -4.980390 89.551600 3.342270 -82.354400 -5.348130 -0.000001 -0.000004 -59.055700 32.645400 -26.871100 -24.328900 0.000322 -0.000009 -5.073620 2.942730 -120.047000 -22.291500 -0.000108 -0.000004 27.339200 5.644000 -14.461000 -2.192480 -6.469440 -0.000000 176.420000 -1.642070 -45.768400 39.081100 -0.000007 -0.000012 0.109803 -0.043539 68.368000 40.985400 -0.000006 -0.000013 5.780490 -9.689370 -70.290800 11.754300 -0.000000 0.000003 -0.007019 -0.079834 -19.826800 -2.192510 6.469440 -0.000001 167.553000 19.475500 -179.396000 -39.081100 -0.002282 -0.040193 0.103983 -0.180876 29.101400 -40.985400 0.000008 0.000006 5.966040 17.084200 -48.464600 -11.754300 -0.000006 -0.000006 -0.190847 -0.629680 -43.495100
0.000000 0.000000 0.000000 0.000000 0.000000 -0.000000 -2.063460 91.178000 455.423000 -89.939900 11.645200 168.595000 15.735700 0.000005 -0.000001 120.892000 83.058400 -122.575000 8.984550 -0.406207 -0.000000 4.282660 7.167890 -3.632590 16.377300 -0.000001 -0.000001 -8.656350 -1.069780 0.122161 6.456720 -0.000001 -0.000000 -17.204400 -4.551350 0.375937 12.994200 -0.242716 4.980390 -87.135600 -7.628460 -69.347100 5.348090 -0.000007 -0.000001 -73.506600 24.866200 31.512400 24.328600 0.000019 0.000005 22.964400 -0.350068 -90.823300 22.291600 -0.000001 0.000005 10.419500 5.497550 -6.426810 12.994500 -0.242716 -4.980390 89.508500 3.701160 -82.429900 -5.348130 -0.000001 -0.000004 -60.432800 34.663300 -21.134100 -24.328900 0.000322 -0.000009 -8.083440 3.350470 -112.392000 -22.291500 -0.000108 -0.000004 26.075900 5.623660 -12.843500 -2.192480 -6.469440 -0.000000 177.726000 -3.533040 -39.156700 39.081100 -0.000007 -0.000012 0.062489 -0.049621 51.545800 40.985400 -0.000006 -0.000013 3.275380 -6.033500 -72.508600 11.754300 -0.000000 0.000003 -0.006761 -0.077605 -19.735900 -2.192510 6.469440 -0.000001 169.553000 13.676200 -178.217000 -39.081100 -0.002282 -0.040193 0.129943 -0.200209 32.316400 -40.985400 0.000008 0.000006 5.471700 11.013800 -41.780500 -11.754300 -0.000006 -0.000006 -0.034085 -0.235613 -26.236200
0.000000 0.000000 0.000000 0.000000 0.000000 -0.000000 -1.789590 90.585700 448.942000 -88.610000 10.099700 169.003000 15.735700 0.000005 -0.000001 117.093000 83.059900 -118.677000 8.984550 -0.406207 -0.000000 4.704240 6.352530 -3.427190 16.377300 -0.000001 -0.000001 -8.236980 -1.081780 -0.407095 6.456720 -0.000001 -0.000000 -16.746900 -4.874740 0.011739 12.994200 -0.242716 4.980390 -87.423500 -6.979590 -69.679800 5.348090 -0.000007 -0.000001 -72.382800 19.455100 27.655300 24.328600 0.000019 0.000005 24.707200 -2.017100 -94.373900 22.291600 -0.000001 0.000005 8.658920 5.482270 -5.835380 12.994500 -0.242716 -4.980390 89.409100 4.295070 -82.159400 -5.348130 -0.000001 -0.000004 -62.770900 36.710100 -15.082100 -24.328900 0.000322 -0.000009 -12.021100 2.379120 -101.045000 -22.291500 -0.000108 -0.000004 23.561200 5.568640 -9.558930 -2.192480 -6.469440 -0.000000 177.636000 -7.574470 -34.120400 39.081100 -0.000007 -0.000012 0.029855 -0.034643 40.752400 40.985400 -0.000006 -0.000013 2.051680 -4.504010 -71.548500 11.754300 -0.000000 0.000003 -0.006803 -0.077974 -19.750900 -2.192510 6.469440 -0.000001 173.504000 5.709700 179.693000 -39.081100 -0.002282 -0.040193 0.110493 -0.115802 42.796900 -40.985400 0.000008 0.000006 5.996900 2.660040 -40.440900 -11.754300 -0.000006 -0.000006 -0.024237 -0.189719 -24.333300
0.000000 0.000000 0.000000 0.000000 0.000000 -0.000000 -1.818090 88.785900 442.230000 -88.039700 7.678220 170.045000 15.735700 0.000005 -0.000001 106.833000 82.942400 -108.397000 8.984550 -0.406207 -0.000000 5.814030 4.103930 -3.332740 16.377300 -0.000001 -0.000001 -7.286790 -1.158780 -0.541042 6.456720 -0.000001 -0.000000 -16.560500 -4.746560 0.022283 12.994200 -0.242716 4.980390 -88.136300 -4.986940 -69.477900 5.348090 -0.000007 -0.000001 -70.750400 15.169300 21.231200 24.328600 0.000019 0.000005 23.358200 -3.575420 -98.219900 22.291600 -0.000001 0.000005 11.032600 5.496360 -6.368800 12.994500 -0.242716 -4.980390 89.220000 5.363600 -81.715000 -5.348130 -0.000001 -0.000004 -64.159600 37.818600 -10.822100 -24.328900 0.000322 -0.000009 -11.951700 -0.334023 -88.391100 -22.291500 -0.000108 -0.000004 19.789400 5.477240 -5.569920 -2.192480 -6.469440 -0.000000 176.830000 -10.267600 -31.464100 39.081100 -0.000007 -0.000012 -0.177286 0.197983 41.843600 40.985400 -0.000006 -0.000013 3.107460 -3.625990 -71.185900 11.754300 -0.000000 0.000003 -0.000001 -0.000019 -16.578200 -2.192510 6.469440 -0.000001 176.286000 1.947020 175.001000 -39.081100 -0.002282 -0.040193 0.055459 -0.030284 59.907200 -40.985400 0.000008 0.000006 4.991900 0.251489 -41.623300 -11.754300 -0.000006 -0.000006 -0.025730 -0.197179 -24.641700
0.000000 0.000000 0.000000 0.000000 0.000000 -0.000000 -2.166270 85.833800 435.772000 -89.444900 4.592910 171.312000 15.735700 0.000005 -0.000001 93.837100 82.694900 -95.743800 8.984550 -0.406207 -0.000000 6.831570 0.989986 -3.868430 16.377300 -0.000001 -0.000001 -5.914220 -2.456380 0.122417 6.456720 -0.000001 -0.000000 -15.465700 -4.187450 -1.069340 12.994200 -0.242716 4.980390 -89.478100 -1.436830 -70.064000 5.348090 -0.000007 -0.000001 -67.932900 12.451400 13.261100 24.328600 0.000019 0.000005 20.476800 -5.009850 -103.166000 22.291600 -0.000001 0.000005 15.288200 5.510860 -6.991030 12.994500 -0.242716 -4.980390 88.773200 7.266240 -80.393100 -5.348130 -0.000001 -0.000004 -63.746200 38.010800 -7.184660 -24.328900 0.000322 -0.000009 -3.946280 -0.984422 -75.776000 -22.291500 -0.000108 -0.000004 15.845000 5.402980 -3.023290 -2.192480 -6.469440 -0.000000 175.981000 -5.481910 -29.804100 39.081100 -0.000007 -0.000012 -0.415737 0.338764 50.826000 40.985400 -0.000006 -0.000013 2.130730 -5.871670 -80.454500 11.754300 -0.000000 0.000003 -0.000098 -0.001009 -16.616300 -2.192510 6.469440 -0.000001 176.069000 1.941600 166.971000 -39.081100 -0.002282 -0.040193 0.031380 -0.004542 80.966800 -40.985400 0.000008 0.000006 3.263690 0.431170 -43.340300 -11.754300 -0.000006 -0.000006 -0.025100 -0.194057 -24.512600
0.000000 0.000000 0.000000 0.000000 0.000000 -0.000000 -2.467980 83.485500 430.241000 -91.138900 1.077530 171.219000 15.735700 0.000005 -0.000001 84.457500 82.487300 -86.608600 8.984550 -0.406207 -0.000000 7.167470 -1.434860 -4.207880 16.377300 -0.000001 -0.000001 -5.266070 -4.545990 0.109840 6.456720 -0.000001 -0.000000 -13.838800 -5.260010 -0.473542 12.994200 -0.242716 4.980390 -90.939900 2.863030 -71.810300 5.348090 -0.000007 -0.000001 -64.361700 11.886200 1.225080 24.328600 0.000019 0.000005 18.842400 -6.072100 -107.223000 22.291600 -0.000001 0.000005 18.322300 5.517200 -7.238130 12.994500 -0.242716 -4.980390 88.048700 9.911900 -78.807200 -5.348130 -0.000001 -0.000004 -63.360900 34.465800 0.073384 -24.328900 0.000322 -0.000009 7.726920 3.149120 -68.003400 -22.291500 -0.000108 -0.000004 15.764900 5.433150 -4.030670 -2.192480 -6.469440 -0.000000 174.579000 -1.682500 -27.802600 39.081100 -0.000007 -0.000012 -0.535802 0.368426 55.488200 40.985400 -0.000006 -0.000013 1.757800 -6.321240 -87.021000 11.754300 -0.000000 0.000003 -0.000206 -0.001897 -16.649100 -2.192510 6.469440 -0.000001 175.770000 3.462830 155.264000 -39.081100 -0.002282 -0.040193 -0.025934 -0.005098 99.715000 -40.985400 0.000008 0.000006 5.112790 -1.418980 -45.342800 -11.754300 -0.000006 -0.000006 -0.025578 -0.196431 -24.610700
0.000000 0.000000 0.000000 0.000000 0.000000 -0.000000 -2.532060 82.449600 424.408000 -90.611200 -1.066690 170.593000 15.735700 0.000005 -0.000001 82.135300 82.153200 -83.880300 8.984550 -0.406207 -0.000000 7.753830 -2.138520 -3.341670 16.377300 -0.000001 -0.000001 -5.268170 -5.907810 0.300728 6.456720 -0.000001 -0.000000 -13.482500 -6.569270 0.467238 12.994200 -0.242716 4.980390 -91.252500 4.184180 -73.321300 5.348090 -0.000007 -0.000001 -63.731400 13.856000 -13.900500 24.328600 0.000019 0.000005 17.368200 -6.443590 -109.738000 22.291600 -0.000001 0.000005 21.019800 5.541470 -8.310800 12.994500 -0.242716 -4.980390 87.864400 9.685610 -77.500600 -5.348130 -0.000001 -0.000004 -65.426800 29.452300 9.479350 -24.328900 0.000322 -0.000009 6.278500 2.746510 -66.485700 -22.291500 -0.000108 -0.000004 17.712500 5.426920 -3.828810 -2.192480 -6.469440 -0.000000 175.864000 -4.796560 -23.529200 39.081100 -0.000007 -0.000012 -0.518978 0.359984 55.254500 40.985400 -0.000006 -0.000013 3.416010 -2.062360 -91.695700 11.754300 -0.000000 0.000003 -0.000190 -0.001776 -16.644600 -2.192510 6.469440 -0.000001 177.802000 4.357410 143.234000 -39.081100 -0.002282 -0.040193 -0.133777 -0.053330 111.223000 -40.985400 0.000008 0.000006 8.576270 -6.286710 -47.536400 -11.754300 -0.000006 -0.000006 -0.025640 -0.196738 -24.623400
0.000000 0.000000 0.000000 0.000000 0.000000 -0.000000 -2.416420 82.879900 417.594000 -89.153800 -3.864750 169.162000 15.735700 0.000005 -0.000001 72.981700 82.388900 -73.823900 8.984550 -0.406207 -0.000000 6.773020 -4.433400 -1.420820 16.377300 -0.000001 -0.000001 -4.803350 -6.201850 0.239436 6.456720 -0.000001 -0.000000 -12.445600 -5.640420 0.910030 12.994200 -0.242716 4.980390 -90.401500 1.465310 -74.697700 5.348090 -0.000007 -0.000001 -67.867200 15.617100 -22.126500 24.328600 0.000019 0.000005 19.582700 -8.871270 -113.433000 22.291600 -0.000001 0.000005 20.773500 5.544330 -8.441390 12.994500 -0.242716 -4.980390 87.980700 7.937980 -75.675200 -5.348130 -0.000001 -0.000004 -66.727500 29.394900 17.017900 -24.328900 0.000322 -0.000009 -3.345460 -1.235020 -69.695300 -22.291500 -0.000108 -0.000004 15.085400 5.426610 -3.826340 -2.192480 -6.469440 -0.000000 178.904000 -5.264950 -16.418100 39.081100 -0.000007 -0.000012 -0.496192 0.441271 48.354000 40.985400 -0.000006 -0.000013 4.030080 1.091800 -93.379700 11.754300 -0.000000 0.000003 -0.000144 -0.001400 -16.630800 -2.192510 6.469440 -0.000001 -178.519000 6.016470 133.866000 -39.081100 -0.002282 -0.040193 -0.197430 -0.087845 113.610000 -40.985400 0.000008 0.000006 12.496200 -13.058000 -51.372300 -11.754300 -0.000006 -0.000006 -0.024318 -0.190132 -24.350300
